<svg width="31" height="30" viewBox="0 0 31 30" fill="none" xmlns="http://www.w3.org/2000/svg">
<path d="M29.0262 1.47275C27.9778 0.495288 26.8214 0 25.5869 0C23.6567 0 22.2485 1.21341 21.8631 1.58511C21.3209 2.10755 2.82461 20.1116 2.82461 20.1116C2.70339 20.2301 2.61587 20.3772 2.57061 20.5385C2.15349 22.0384 0.0640322 28.6934 0.0432844 28.7604C-0.0639729 29.1012 0.0317378 29.4724 0.290094 29.7238C0.472341 29.9007 0.719219 30 0.976607 30C1.0762 30 1.17672 29.9855 1.27486 29.9541C1.34559 29.9317 8.40539 27.7113 9.56724 27.3738C9.72054 27.3288 9.86025 27.2481 9.97426 27.1388C10.7084 26.4328 27.9596 9.83366 29.1046 8.68298C30.2891 7.49532 30.8775 6.2585 30.8549 5.00765C30.8313 3.7727 30.216 2.58364 29.0262 1.47275ZM21.5566 4.5793C22.0469 4.69493 23.203 5.07266 24.3837 6.23179C25.5768 7.40307 25.8996 8.74193 25.9598 9.04669C22.1763 12.7089 13.4673 21.0932 10.0341 24.3978C9.71704 23.6792 9.20466 22.8136 8.38049 22.0056C7.37404 21.0188 6.34973 20.4613 5.55975 20.1476C8.95734 16.8412 17.8304 8.20361 21.5566 4.5793ZM4.25308 21.728C4.78182 21.8647 5.88016 22.2612 6.99974 23.3594C7.86188 24.2054 8.2689 25.1384 8.45172 25.7071C7.11424 26.1257 4.18573 27.1092 2.3248 27.693C2.87615 25.9276 3.80754 23.1783 4.25308 21.728ZM27.7081 7.34499C27.6475 7.40521 27.5867 7.46529 27.5257 7.52522C27.2216 6.76307 26.6881 5.78376 25.7644 4.87745C24.8204 3.95147 23.863 3.40516 23.0957 3.08215C23.1611 3.01895 23.2116 2.9693 23.2313 2.9506C23.3415 2.84477 24.3408 1.91555 25.5864 1.91555C26.3032 1.91555 27.0071 2.23388 27.6797 2.86119C28.4769 3.60505 28.8878 4.33909 28.9013 5.04363C28.9142 5.76269 28.513 6.53699 27.7081 7.34499Z" fill="#12B698"/>
</svg>
