<svg width="169" height="86" viewBox="0 0 169 86" fill="none" xmlns="http://www.w3.org/2000/svg">
<path d="M2.87573 41V29.948C2.87573 28.532 3.19973 27.248 3.84773 26.096C4.49573 24.92 5.43173 23.984 6.65573 23.288C7.87973 22.568 9.35573 22.208 11.0837 22.208C12.3317 22.208 13.5677 22.484 14.7917 23.036C16.0397 23.564 16.9997 24.512 17.6717 25.88H17.7077C18.4037 24.512 19.3757 23.564 20.6237 23.036C21.8717 22.484 23.1317 22.208 24.4037 22.208C26.1077 22.208 27.5717 22.568 28.7957 23.288C30.0197 23.984 30.9557 24.92 31.6037 26.096C32.2517 27.248 32.5757 28.532 32.5757 29.948V41H29.2637V29.948C29.2637 29.036 29.0477 28.208 28.6157 27.464C28.1837 26.72 27.5957 26.132 26.8517 25.7C26.1317 25.268 25.3037 25.052 24.3677 25.052C23.4557 25.052 22.6157 25.28 21.8477 25.736C21.0797 26.168 20.4677 26.756 20.0117 27.5C19.5797 28.244 19.3637 29.06 19.3637 29.948V41H16.0517V29.948C16.0517 29.06 15.8237 28.244 15.3677 27.5C14.9357 26.756 14.3357 26.168 13.5677 25.736C12.8237 25.28 11.9837 25.052 11.0477 25.052C10.1357 25.052 9.30773 25.268 8.56373 25.7C7.84373 26.132 7.26773 26.72 6.83573 27.464C6.40373 28.208 6.18773 29.036 6.18773 29.948V41H2.87573ZM53.265 41C51.225 41 49.425 40.628 47.865 39.884C46.329 39.116 45.117 38.048 44.229 36.68C43.365 35.288 42.933 33.668 42.933 31.82C42.933 29.996 43.305 28.364 44.049 26.924C44.793 25.46 45.825 24.308 47.145 23.468C48.465 22.628 50.001 22.208 51.753 22.208C53.649 22.208 55.221 22.616 56.469 23.432C57.741 24.248 58.689 25.352 59.313 26.744C59.937 28.112 60.249 29.648 60.249 31.352C60.249 31.928 60.213 32.456 60.141 32.936H46.461C46.581 34.064 46.953 35.024 47.577 35.816C48.201 36.584 48.993 37.172 49.953 37.58C50.937 37.964 52.017 38.156 53.193 38.156H57.981V41H53.265ZM46.425 30.596H56.901C56.901 29.804 56.745 28.976 56.433 28.112C56.121 27.248 55.593 26.516 54.849 25.916C54.105 25.292 53.073 24.98 51.753 24.98C50.649 24.98 49.701 25.268 48.909 25.844C48.141 26.396 47.541 27.104 47.109 27.968C46.701 28.808 46.473 29.684 46.425 30.596ZM78.2243 41.432C76.4243 41.432 74.8763 41.012 73.5803 40.172C72.3083 39.308 71.3243 38.156 70.6283 36.716C69.9323 35.252 69.5843 33.62 69.5843 31.82C69.5843 30.02 69.9683 28.4 70.7363 26.96C71.5043 25.496 72.6083 24.344 74.0483 23.504C75.4883 22.64 77.2163 22.208 79.2323 22.208C81.1523 22.208 82.8083 22.628 84.2003 23.468C85.6163 24.308 86.6963 25.448 87.4403 26.888C88.2083 28.328 88.5923 29.936 88.5923 31.712V41H85.2443V37.256H85.1723C84.8123 37.928 84.3203 38.588 83.6963 39.236C83.0723 39.884 82.3043 40.412 81.3923 40.82C80.5043 41.228 79.4483 41.432 78.2243 41.432ZM79.0883 38.588C80.2883 38.588 81.3443 38.288 82.2563 37.688C83.1923 37.088 83.9123 36.272 84.4163 35.24C84.9443 34.208 85.2083 33.044 85.2083 31.748C85.2083 30.476 84.9563 29.336 84.4523 28.328C83.9723 27.32 83.2763 26.528 82.3643 25.952C81.4523 25.352 80.3843 25.052 79.1603 25.052C77.8643 25.052 76.7483 25.352 75.8123 25.952C74.9003 26.552 74.1923 27.368 73.6883 28.4C73.2083 29.432 72.9683 30.584 72.9683 31.856C72.9683 33.104 73.2083 34.244 73.6883 35.276C74.1683 36.284 74.8643 37.088 75.7763 37.688C76.6883 38.288 77.7923 38.588 79.0883 38.588ZM99.9857 41V30.38C99.9857 28.748 100.346 27.32 101.066 26.096C101.81 24.872 102.83 23.924 104.126 23.252C105.422 22.556 106.898 22.208 108.554 22.208C110.234 22.208 111.71 22.556 112.982 23.252C114.278 23.924 115.286 24.872 116.006 26.096C116.75 27.32 117.122 28.748 117.122 30.38V41H113.81V30.416C113.81 29.312 113.558 28.364 113.054 27.572C112.574 26.756 111.926 26.132 111.11 25.7C110.318 25.268 109.466 25.052 108.554 25.052C107.642 25.052 106.778 25.268 105.962 25.7C105.17 26.132 104.522 26.756 104.018 27.572C103.538 28.364 103.298 29.312 103.298 30.416V41H99.9857Z" fill="#12B698"/>
<path d="M85.2871 70C83.6551 70 82.3711 69.532 81.4351 68.596C80.5231 67.66 80.0671 66.388 80.0671 64.78V54.484H76.8991V51.64H80.0671V47.032H83.3791V51.64H89.6791V54.484H83.3791V64.564C83.3791 65.356 83.5951 65.992 84.0271 66.472C84.4831 66.928 85.1071 67.156 85.8991 67.156H89.6071V70H85.2871ZM106.751 77.308V70.288C105.407 70.096 104.207 69.64 103.151 68.92C102.119 68.2 101.303 67.276 100.703 66.148C100.103 65.02 99.8032 63.724 99.8032 62.26V51.64H103.151V62.224C103.151 63.328 103.391 64.288 103.871 65.104C104.375 65.896 105.023 66.508 105.815 66.94C106.607 67.372 107.459 67.588 108.371 67.588C109.307 67.588 110.171 67.372 110.963 66.94C111.779 66.508 112.427 65.896 112.907 65.104C113.411 64.288 113.663 63.328 113.663 62.224V51.64H116.975V62.26C116.975 63.724 116.675 65.02 116.075 66.148C115.499 67.276 114.683 68.2 113.627 68.92C112.595 69.616 111.407 70.072 110.063 70.288V77.308H106.751Z" fill="#12B698"/>
<path d="M130.075 70C130.075 70 128.516 56.1327 131 47.5C133.181 39.9189 135.991 35.5001 142.05 30.44C149.48 24.2341 166 24 166 24C166 24 163.77 27.2642 161.855 33.66C160.075 39.6021 159.909 45.16 155.793 50.22C149.805 57.58 137.904 60.34 137.904 60.34V55.5" stroke="#12B698" stroke-width="3"/>
</svg>
