<svg width="32" height="32" viewBox="0 0 32 32" fill="none" xmlns="http://www.w3.org/2000/svg">
    <path d="M30.1028 1.57094C29.0156 0.528307 27.8163 0 26.536 0C24.5341 0 23.0737 1.2943 22.674 1.69078C22.1117 2.24805 2.92938 21.4523 2.92938 21.4523C2.80366 21.5788 2.7129 21.7357 2.66596 21.9077C2.23337 23.5076 0.0664073 30.6063 0.0448899 30.6777C-0.0663458 31.0413 0.032915 31.4373 0.300854 31.7054C0.489861 31.894 0.745896 32 1.01283 32C1.11611 32 1.22036 31.9845 1.32215 31.951C1.3955 31.9271 8.71716 29.5587 9.9221 29.1987C10.0811 29.1507 10.226 29.0647 10.3442 28.948C11.1056 28.195 28.9966 10.4892 30.1842 9.26184C31.4126 7.99501 32.0228 6.67574 31.9994 5.34149C31.9749 4.02422 31.3367 2.75588 30.1028 1.57094ZM22.3562 4.88459C22.8646 5.00793 24.0637 5.41084 25.2881 6.64724C26.5255 7.89661 26.8603 9.32473 26.9227 9.6498C22.9989 13.5562 13.9668 22.4994 10.4063 26.0243C10.0775 25.2578 9.54608 24.3345 8.69134 23.4727C7.64756 22.42 6.58525 21.8254 5.76597 21.4908C9.28958 17.9639 18.4918 8.75051 22.3562 4.88459ZM4.41084 23.1765C4.95919 23.3223 6.09827 23.7453 7.25937 24.9167C8.1535 25.8191 8.57561 26.8142 8.76521 27.4209C7.37812 27.8674 4.34098 28.9165 2.41103 29.5392C2.98283 27.6561 3.94877 24.7235 4.41084 23.1765ZM28.7358 7.83465C28.673 7.89889 28.6099 7.96298 28.5467 8.0269C28.2313 7.21394 27.678 6.16934 26.72 5.20261C25.7411 4.21491 24.7482 3.63217 23.9524 3.28762C24.0202 3.22021 24.0726 3.16725 24.093 3.14731C24.2073 3.03442 25.2437 2.04326 26.5354 2.04326C27.2789 2.04326 28.0088 2.38281 28.7064 3.05193C29.5331 3.84539 29.9592 4.62836 29.9733 5.37988C29.9867 6.14687 29.5706 6.97279 28.7358 7.83465Z" fill="#12B698"/>
</svg>
