<svg width="36" height="36" viewBox="0 0 36 36" fill="none" xmlns="http://www.w3.org/2000/svg">
    <g clip-path="url(#clip0_2268_1636)">
        <path d="M33.75 3.36816H2.25C1.01306 3.36816 0 4.38066 0 5.61817V24.7499C0 25.9869 1.01306 26.9993 2.25 26.9993H16.875V30.3816H11.25C10.629 30.3816 10.125 30.8856 10.125 31.5066C10.125 32.1276 10.629 32.6316 11.25 32.6316H24.75C25.371 32.6316 25.875 32.1276 25.875 31.5066C25.875 30.8856 25.371 30.3816 24.75 30.3816H19.125V26.9993H33.75C34.9869 26.9993 36 25.9868 36 24.7499V5.61817C36 4.38066 34.9869 3.36816 33.75 3.36816ZM33.75 24.7499H2.25V5.61817H33.75V24.7499Z" fill="#12B698"/>
        <path d="M33.75 3.36816H2.25C1.01306 3.36816 0 4.38066 0 5.61817V24.7499C0 25.9869 1.01306 26.9993 2.25 26.9993H16.875V30.3816H11.25C10.629 30.3816 10.125 30.8856 10.125 31.5066C10.125 32.1276 10.629 32.6316 11.25 32.6316H24.75C25.371 32.6316 25.875 32.1276 25.875 31.5066C25.875 30.8856 25.371 30.3816 24.75 30.3816H19.125V26.9993H33.75C34.9869 26.9993 36 25.9868 36 24.7499V5.61817C36 4.38066 34.9869 3.36816 33.75 3.36816ZM33.75 24.7499H2.25V5.61817H33.75V24.7499Z" fill="#12B698"/>
        <path d="M25 10L16 19" stroke="#12B698" stroke-width="2"/>
        <path d="M12 14L17 19" stroke="#12B698" stroke-width="2"/>
    </g>
    <defs>
        <clipPath id="clip0_2268_1636">
            <rect width="36" height="36" fill="white"/>
        </clipPath>
    </defs>
</svg>