<svg width="14" height="14" viewBox="0 0 14 14" fill="none" xmlns="http://www.w3.org/2000/svg">
    <path d="M7 0C3.13403 0 0 3.13403 0 7C0 10.8662 3.13403 14 7 14C10.8662 14 14 10.8662 14 7C14 3.13403 10.8662 0 7 0ZM7 13.1388C3.62272 13.1388 0.875 10.3773 0.875 6.99997C0.875 3.62269 3.62272 0.874973 7 0.874973C10.3773 0.874973 13.125 3.6227 13.125 6.99997C13.125 10.3772 10.3773 13.1388 7 13.1388ZM7.4375 6.82237V2.62503C7.4375 2.38353 7.2415 2.18753 7 2.18753C6.7585 2.18753 6.5625 2.38353 6.5625 2.62503V7.00003C6.5625 7.12384 6.61434 7.23518 6.69725 7.31458C6.70448 7.32311 6.71038 7.33229 6.71826 7.34037L8.88367 9.506C9.05451 9.67664 9.33145 9.67664 9.5023 9.506C9.67314 9.33516 9.67314 9.058 9.5023 8.88716L7.4375 6.82237Z" fill="#0F957C"/>
</svg>
