<svg width="11" height="14" viewBox="0 0 11 14" fill="none" xmlns="http://www.w3.org/2000/svg">
    <path d="M5.54739 14C8.73733 14 11 11.7097 11 8.55396C11 6.8786 10.0298 5.07377 9.98852 4.99819C9.90432 4.84289 9.73888 4.75854 9.56624 4.77827C9.48275 4.78942 9.40435 4.82606 9.34105 4.88353C9.27775 4.94099 9.23241 5.01668 9.21082 5.10093C9.20828 5.11123 8.94679 6.12437 8.60173 6.68692C8.36986 7.06547 8.13481 7.33294 7.87036 7.5187C8.04934 6.71563 8.18643 5.5073 7.96323 4.26742C7.35055 0.864123 4.76356 0.0498809 4.65269 0.017022C4.5101 -0.0252564 4.35882 0.0126408 4.25029 0.114928C4.14197 0.217666 4.09246 0.371665 4.1206 0.521077C4.12483 0.544954 4.55198 2.92766 3.64543 4.9579C3.56315 5.14233 3.44826 5.35659 3.3247 5.57105C3.28958 5.27663 3.235 4.96359 3.15122 4.65976C2.81865 3.45536 1.95864 3.0442 1.92226 3.02754C1.77882 2.95985 1.61147 2.98219 1.4875 3.08274C1.42686 3.13223 1.38042 3.19793 1.3532 3.27274C1.32599 3.34756 1.31902 3.42865 1.33305 3.50726C1.3375 3.53684 1.45747 4.35657 0.783839 5.5191C0.175597 6.56883 0 7.24923 0 8.55418C0 11.7097 2.3329 14 5.54738 14H5.54739ZM9.68239 6.39317C9.91468 6.99975 10.154 7.80674 10.154 8.55373C10.154 11.2017 8.24738 13.1235 5.54763 13.1235C2.82376 13.1235 0.8465 11.2017 0.8465 8.55373C0.8465 7.41002 0.982959 6.87902 1.50975 5.96949C1.86179 5.36204 2.03571 4.81592 2.11885 4.38131C2.20263 4.52173 2.28047 4.69325 2.33738 4.89982C2.59527 5.83346 2.53032 6.92525 2.52947 6.93643C2.51698 7.13184 2.63186 7.31257 2.81042 7.37806C2.98898 7.44356 3.18765 7.37894 3.29724 7.21838C3.32897 7.17172 4.0815 6.06876 4.41323 5.32571C5.10208 3.78419 5.09044 2.11737 5.0202 1.15724C5.7173 1.57783 6.78759 2.51738 7.13138 4.42823C7.46608 6.2876 6.81573 8.14676 6.80875 8.16514C6.75248 8.31695 6.78231 8.48913 6.88555 8.61137C6.98921 8.73294 7.14873 8.78682 7.30254 8.74869C7.35499 8.73534 8.54589 8.41464 9.31682 7.15659C9.45455 6.93118 9.5781 6.65845 9.68239 6.39317Z" fill="#B53B90"/>
</svg>
